<?xml version="1.0" encoding="utf-8"?>
<svg viewBox="0 0 500 500" xmlns="http://www.w3.org/2000/svg">
  <path fill="#050A14" d="M 285.599 248.535 C 285.599 275.764 256.126 292.782 232.545 279.169 C 221.6 272.849 214.859 261.17 214.859 248.535 C 214.859 221.308 244.335 204.289 267.915 217.903 C 278.859 224.222 285.599 235.897 285.599 248.535 Z M 407.355 157.73 C 399.872 144.465 390.35 132.222 379.467 121.339 L 338.655 145.146 C 326.072 134.263 311.447 125.76 295.802 120.319 C 282.164 134.059 271.006 150.05 262.813 167.592 C 312.607 165.984 361.22 182.954 399.193 215.206 L 425.04 200.241 C 420.857 185.416 414.919 171.146 407.355 157.73 Z M 250.229 430.148 C 265.534 430.148 280.838 428.107 295.802 424.366 L 295.802 376.753 C 311.341 371.233 325.745 362.938 338.315 352.265 C 333.421 333.625 325.245 316.005 314.167 300.23 C 290.626 344.14 251.589 377.718 204.656 394.437 L 204.656 424.026 C 219.621 428.107 234.925 430.148 250.229 430.148 Z M 93.104 157.73 C 85.282 171.333 79.5 185.278 75.419 200.241 L 116.23 224.049 C 113.268 240.238 113.268 256.83 116.23 273.022 C 135.616 278.124 154.662 279.824 173.707 278.124 C 147.353 235.864 137.654 185.314 146.5 136.303 L 120.992 121.679 C 110.109 132.562 100.586 144.465 93.104 157.73 Z" style="" transform="matrix(1, 0, 0, 1, 2.842170943040401e-14, 0)"/>
  <path fill="#00B4FF" d="M 407.355 339.342 C 415.177 326.078 420.958 312.134 425.04 297.17 L 384.228 273.362 C 387.234 257.062 387.234 240.349 384.228 224.049 C 364.842 218.947 345.797 217.246 326.751 218.947 C 353.105 261.204 362.806 311.756 353.959 360.768 L 379.467 375.732 C 390.35 364.849 399.872 352.605 407.355 339.342 Z M 93.104 339.342 C 100.586 352.946 110.109 364.849 120.992 375.732 L 161.803 351.926 C 174.448 362.754 188.975 371.168 204.656 376.753 C 218.26 362.808 229.483 346.824 237.646 329.819 C 187.968 331.343 139.494 314.376 101.606 282.205 L 75.419 297.17 C 79.5 311.794 85.622 326.078 93.104 339.342 Z M 250.229 67.263 C 234.925 67.263 219.621 68.963 204.656 73.045 L 204.656 120.319 C 189.12 125.838 174.713 134.133 162.144 144.806 C 167.246 164.192 175.748 181.536 186.291 197.181 C 209.832 153.271 248.869 119.693 295.802 102.974 L 295.802 72.704 C 280.934 68.739 265.619 66.681 250.229 66.583 L 250.229 67.263 Z" style="" transform="matrix(1, 0, 0, 1, 2.842170943040401e-14, 0)"/>
  <path fill="#00B4FF" d="M 250.229 35.974 C 414.123 36.104 516.41 213.604 434.351 355.473 C 396.271 421.316 325.952 461.838 249.889 461.777 C 86 461.645 -16.292 284.147 65.767 142.278 C 103.85 76.435 174.166 35.913 250.229 35.974 M 250.229 4.685 C 62.382 4.685 -55.023 208.037 38.902 370.716 C 82.493 446.214 163.049 492.726 250.229 492.726 C 438.075 492.726 555.482 289.374 461.559 126.696 C 417.969 51.194 337.41 4.685 250.229 4.685 Z" style="" transform="matrix(1, 0, 0, 1, 2.842170943040401e-14, 0)"/>
  <path fill="none" d="M -251.702 363.89 L 61.498 363.89 L 61.498 379.69 L -251.702 379.69 L -251.702 363.89 Z" transform="matrix(1, 0, 0, 1, 2.842170943040401e-14, 0)"/>
</svg>